<svg xmlns="http://www.w3.org/2000/svg" viewBox="0 0 400 300"><rect width="400" height="300" fill="#e0e9e8"/><circle cx="335" cy="55" r="88" fill="#ffffff" opacity=".16"/><rect x="102" y="53" width="194" height="222" rx="10" fill="#faf9ee" stroke="#bdcdc7" stroke-width="3"/><path d="M103 102h192" stroke="#d3ddd4" stroke-width="3"/><rect x="122" y="69" width="58" height="17" rx="3" fill="#dce4d9"/><rect x="228" y="68" width="48" height="18" rx="3" fill="#708e83"/><circle cx="202" cy="78" r="10" fill="#b6c5b7"/><circle cx="199" cy="183" r="66" fill="#cad7d0"/><circle cx="199" cy="183" r="54" fill="#4d7778"/><circle cx="199" cy="183" r="43" fill="#96b8b3"/><path d="M161 189q22-29 38-4t38-2q-1 41-38 43t-38-37" fill="#d7e3db"/><path d="M163 168q10-18 28-20" stroke="#e4eee6" stroke-width="5" stroke-linecap="round" fill="none"/><rect x="122" y="34" width="124" height="16" rx="5" fill="#c4aa7c"/><rect x="135" y="20" width="113" height="15" rx="5" fill="#8ca68d"/><path d="M0 276h400" stroke="#bfcfc7" stroke-width="3"/><path d="m322 253 18-43m-15 45 19-44" stroke="#718c7d" stroke-width="8"/><path d="m335 212-4-19 9-8 1 12 10 4 8-9 0 13-14 10" fill="#718c7d"/></svg>