<svg xmlns="http://www.w3.org/2000/svg" viewBox="0 0 400 300"><rect width="400" height="300" fill="#e2eee9"/><circle cx="335" cy="55" r="88" fill="#ffffff" opacity=".16"/><path d="M0 235h400" stroke="#c8d9d0" stroke-width="3"/><rect x="77" y="161" width="246" height="67" rx="12" fill="#fafaf1" stroke="#c8d4cd" stroke-width="3"/><ellipse cx="200" cy="166" rx="104" ry="21" fill="#c7dcd6"/><ellipse cx="200" cy="164" rx="87" ry="13" fill="#e8f0e9"/><path d="M193 151V94c0-31 52-31 52 0v18" fill="none" stroke="#648c86" stroke-width="17"/><path d="M191 153V93c0-26 48-26 48 0" fill="none" stroke="#95b5ab" stroke-width="5"/><path d="M173 126h-30" stroke="#648c86" stroke-width="10" stroke-linecap="round"/><path d="M245 122v22" stroke="#80b5bd" stroke-width="3" stroke-dasharray="3 6"/><rect x="97" y="226" width="207" height="19" rx="3" fill="#b88e69"/><path d="M112 247v33m177-33v33" stroke="#b88e69" stroke-width="10"/><rect x="277" y="124" width="24" height="32" rx="4" fill="#bf9e72"/><path d="M289 127v-38m0 19q-21-4-17-20 15 0 17 20m0-9q17 0 19-18-18 0-19 18" fill="#60856b"/></svg>